<?xml version="1.0" encoding="UTF-8"?>
<svg width="18px" height="12px" viewBox="0 0 18 12" version="1.1" xmlns="http://www.w3.org/2000/svg" xmlns:xlink="http://www.w3.org/1999/xlink">
    <!-- Generator: Sketch 43.2 (39069) - http://www.bohemiancoding.com/sketch -->
    <title>icon-delete</title>
    <desc>Created with Sketch.</desc>
    <defs></defs>
    <g id="main" stroke="none" stroke-width="1" fill="none" fill-rule="evenodd">
        <g id="markets-odds" transform="translate(-339.000000, -431.000000)" fill="#1E1E1E">
            <g id="pop-up" transform="translate(-1.000000, 302.000000)">
                <g id="keyboard" transform="translate(0.000000, 96.000000)">
                    <g id="delete" transform="translate(322.000000, 0.000000)">
                        <g id="Group-5" transform="translate(18.000000, 33.000000)">
                            <path d="M14.5195313,8.59090909 C14.5898441,8.65909125 14.625,8.72727239 14.625,8.79545455 C14.625,8.8636367 14.5898441,8.93181784 14.5195313,9 L13.78125,9.75 C13.7343748,9.79545477 13.664063,9.81818182 13.5703125,9.81818182 C13.476562,9.81818182 13.4062502,9.79545477 13.359375,9.75 L10.6875,7.125 L8.015625,9.75 C7.96874977,9.79545477 7.89843797,9.81818182 7.8046875,9.81818182 C7.71093703,9.81818182 7.64062523,9.79545477 7.59375,9.75 L6.85546875,9 C6.7851559,8.93181784 6.75,8.8636367 6.75,8.79545455 C6.75,8.72727239 6.7851559,8.65909125 6.85546875,8.59090909 L9.52734375,6 L6.8203125,3.40909091 C6.6796868,3.27272659 6.6796868,3.13636432 6.8203125,3 L7.59375,2.25 C7.64062523,2.20454523 7.71093703,2.18181818 7.8046875,2.18181818 C7.89843797,2.18181818 7.96874977,2.20454523 8.015625,2.25 L10.6875,4.84090909 L13.359375,2.25 C13.4062502,2.20454523 13.476562,2.18181818 13.5703125,2.18181818 C13.664063,2.18181818 13.7343748,2.20454523 13.78125,2.25 L14.5546875,3 C14.6953132,3.13636432 14.6953132,3.27272659 14.5546875,3.40909091 L11.8476563,6 L14.5195313,8.59090909 Z M17.5429688,0.477272727 C17.8476578,0.77272875 18,1.147725 18,1.60227273 L18,10.3295455 C18,10.7840932 17.8417985,11.1761347 17.5253906,11.5056818 C17.2089828,11.8352289 16.8281272,12 16.3828125,12 L5.90625,12 C5.46093527,12 5.06250176,11.8977283 4.7109375,11.6931818 C4.40624848,11.5340901 4.13671992,11.3068197 3.90234375,11.0113636 L3.8671875,10.9772727 L0,6 L3.8671875,0.954545455 C4.35937746,0.318178636 5.03905816,0 5.90625,0 L16.3828125,0 C16.8281272,0 17.2148421,0.159089318 17.5429688,0.477272727 Z M16.875,10.4097222 L16.875,1.52083333 C16.875,1.17360937 16.7109391,1 16.3828125,1 L5.90625,1 C5.43749766,1 5.06250141,1.18518333 4.78125,1.55555556 L1.40625,6 L4.78125,10.4444444 C5.08593902,10.8148167 5.46093527,11 5.90625,11 L16.3828125,11 C16.7109391,11 16.875,10.8032427 16.875,10.4097222 Z" id="ion-backspace-outline---Ionicons"></path>
                        </g>
                    </g>
                </g>
            </g>
        </g>
    </g>
</svg>